<?xml version="1.0" encoding="utf-8"?>
<!-- Generator: Adobe Illustrator 21.1.0, SVG Export Plug-In . SVG Version: 6.00 Build 0)  -->
<svg version="1.1" id="Layer_1" xmlns="http://www.w3.org/2000/svg" xmlns:xlink="http://www.w3.org/1999/xlink" x="0px" y="0px"
	 viewBox="0 0 825.1 825.1" style="enable-background:new 0 0 825.1 825.1;" xml:space="preserve">
<style type="text/css">
	.st0{fill:#131B28;}
	.st1{fill:#0868AC;}
</style>
<g>
	<path class="st0" d="M254.4,696.4L254.4,696.4l-5.9,20.9L254.4,696.4z M284.7,741.7l-6.5,0L284.7,741.7z M283.1,772.9L283.1,772.9
		l-38.9,0.1L283.1,772.9z M291.2,741.8l-6.5,0L291.2,741.8z M286.5,770.2l6.8-25.8L286.5,770.2L286.5,770.2z M429.6,651.3
		l-12.6,59.3C416.9,710.6,429.6,651.3,429.6,651.3z M397.1,651.3l-9.6,44.3L397.1,651.3L397.1,651.3z"/>
	<path class="st0" d="M427.4,648.6h-27c-1.5,0-3,1.2-3.3,2.7l-9.6,44.3l-9.6,44.3c-0.3,1.5-1.8,2.7-3.3,2.7h-19.1
		c-18.9,0-16.7-13.1-12.8-31l0.1-0.5l0.4-2.3l0.1-0.4l0.9-4.6l0.9-4.9c0.3-1.5,0.7-3.7,1-5l4.4-21.3l4.4-21.3
		c0.3-1.5-0.7-2.7-2.2-2.7H325c-1.5,0-3,1.2-3.3,2.7l-6,28.2l-6,28.2c0,0,0,0,0,0l-0.6,2.6c-6.9,31.3-5,61.1,32.2,62.1
		c0.6,0,1.1,0,1.1,0H401c1.5,0,3-1.2,3.3-2.7l12.6-59.3l12.6-59.3C429.9,649.8,428.9,648.6,427.4,648.6L427.4,648.6z M535,742.9
		c1.5,0,2.5,1.2,2.2,2.7l-2.6,12.8 M531.9,771.1l2.6-12.8L531.9,771.1L531.9,771.1z M528.6,773.8L528.6,773.8
		c-7.9,0.1-31.8,0.2-49.7,0.2C500.8,774.1,528.6,773.8,528.6,773.8z M462.9,726.4c0-1.4,1.6-3.8,3.1-3.8l-3.4-0.1
		C461,737.8,462.9,726.4,462.9,726.4z"/>
	<path class="st0" d="M481.4,774.1c-0.2,0-0.3,0-0.5,0C481.1,774.1,481.2,774.1,481.4,774.1z M535,742.9c1.5,0,2.5,1.2,2.2,2.7
		l-2.6,12.8l-0.4,2.1 M494.2,774h-0.1H494.2z M487.5,774.1h-0.4H487.5z M485.5,774.1c-0.2,0-0.4,0-0.6,0
		C485.1,774.1,485.3,774.1,485.5,774.1z M483.5,774.1h-0.6H483.5z M487.2,774.1l-1.6,0L487.2,774.1z M494.1,774c-2.2,0-4.4,0-6.5,0
		C489.7,774.1,491.9,774.1,494.1,774z M531.9,771.1l2.2-10.7L531.9,771.1L531.9,771.1z M484.9,774.1h-1.4H484.9z M480.9,774.1h-1.9
		H480.9z M482.9,774.1h-1.5H482.9z M88.4,726.7l4.2-18.6l-4.8,21.2L83.2,751l4-19C87.5,730.6,88.1,728.2,88.4,726.7L88.4,726.7z
		 M138.5,648.3h-29.6c-1.5,0-3,1.2-3.3,2.7l-2.8,12.4l-2.8,12.4c-0.3,1.5,0.6,2.7,2.1,2.7H132c1.5,0,3-1.2,3.3-2.7l2.7-12.4
		l2.7-12.4v0C141,649.5,140,648.3,138.5,648.3L138.5,648.3z M132.1,689.6L132.1,689.6l-8.7,40.2L132.1,689.6L132.1,689.6z
		 M46.1,822.7c0,0,14.9,0.2,24.4,0.2C63.3,822.9,51.4,822.8,46.1,822.7L46.1,822.7z M96.8,689.6l-4.2,18.6L96.8,689.6z"/>
	<path class="st0" d="M130,686.9h-29.9c-1.5,0-3,1.2-3.3,2.7l-4.2,18.6l-4.2,18.6c-0.3,1.5-0.9,3.9-1.2,5.3l-4,19l-4,19
		c-0.4,1.8-0.9,3.5-1.4,5.2c0,0-5.6,16.6-15,16.4c-0.4,0-0.8,0-1.2,0c-4.5-0.1-8.1-0.1-8.1-0.1h0c-1.5,0-3,1.1-3.3,2.6l-3.1,13
		L44,820c-0.3,1.5,0.6,2.7,2.1,2.7c5.3,0.1,17.2,0.2,24.4,0.2c23.4,0,35.8-13,43.7-50.3l9.3-42.8l8.7-40.2
		C132.4,688.1,131.5,686.9,130,686.9L130,686.9z M554,772.6c-1.5,0-2.5-1.2-2.2-2.7l22.5-105.2 M585.2,769.9l9.1-44.9L585.2,769.9z"
		/>
	<path class="st0" d="M552.2,771.2c-0.2-0.7-0.1-2.5,0.2-4l10.7-49.9l-11.2,52.6c-0.3,1.5,0.7,2.7,2.2,2.7h2.7
		C555.2,772.6,552.4,772,552.2,771.2L552.2,771.2z M583.4,772c-0.8,0.3-2.7,0.6-4.2,0.6h2.7c1.5,0,3-1.2,3.3-2.7l0.5-2.7
		C585.5,768.7,584.3,771.6,583.4,772L583.4,772z M589.8,747.4l4-19.8c0,0,0,0,0,0L589.8,747.4z M678.4,671.8l1.2,5.1
		c0.3,1.5-0.6,2.7-2.1,2.7 M585.8,767.2l4-19.8L585.8,767.2z M677.1,666.5l1.2,5.2L677.1,666.5z M593.8,727.6
		c0.3-1.5,0.8-3.8,1.1-5.3l4.3-20.1l-4.8,22.7L593.8,727.6L593.8,727.6z M574.7,663c-0.3,1.4-0.7,3.2-0.9,4.4l-10.7,49.9l11.2-52.6
		L574.7,663z"/>
	<path class="st0" d="M679.6,676.9l-1.2-5.1l-1.2-5.2l-0.6-2.7c-2.4-9.4-9.5-14.9-25-14.9l-24.1,0l-22.2,0h-24.9
		c-1.5,0-3,1.2-3.3,2.7h0l-1.1,5.2l-1.3,6.2l-0.4,1.7l-11.2,52.6l-10.7,49.9c-0.3,1.5-0.4,3.3-0.2,4c0.2,0.7,3.1,1.3,4.6,1.3h22.5
		c1.5,0,3.4-0.3,4.2-0.6c0.8-0.3,2-3.3,2.3-4.7l4-19.8l4-19.8l0,0l0.5-2.6l4.9-22.7l4.3-20.1c0.3-1.5,1.8-2.7,3.3-2.7l70.8,0
		C679,679.5,679.9,678.3,679.6,676.9L679.6,676.9z"/>
	<path class="st0" d="M770.7,630.7c-1.5,0-3.9,0-5.4,0h-22.7c-1.5,0-3.4,1-4.3,2.2l-50.1,73.4c-0.8,1.2-1.8,1.1-2.1-0.4l-3.7-16.2
		c-0.3-1.5-1.8-2.7-3.3-2.7h-32.2c-1.5,0-2.4,1.2-2,2.6l14.4,50.6c0.4,1.4,0.4,3.8,0.1,5.3l-6.3,24.5c-0.4,1.5,0.5,2.6,2,2.6H687
		c1.5,0,3-1.2,3.4-2.6l6.3-24.5c0.4-1.5,1.4-3.6,2.3-4.8l81.3-107.9c0.9-1.2,0.4-2.2-1.1-2.2L770.7,630.7L770.7,630.7z M514.9,694
		L514.9,694c-0.2,1.6-1.7,2.8-3.2,2.8h-40.8c-1.4,0-2.1-1-1.9-2.1c0,0,0-0.1,0-0.1c0,0,0,0,0,0c0,0,0-0.1,0-0.1l0.2-0.7
		c3.9-10.4,11.8-17.2,26.8-17.2C512.7,676.5,516,684.7,514.9,694L514.9,694z M502.9,646.8c-52.4,0-64.8,31.8-71.8,63.9
		c-7,32.7-6.4,63.3,47.9,63.3h1.9c0.2,0,0.3,0,0.5,0h3.5c0.2,0,0.4,0,0.6,0l1.6,0h0.4c2.1,0,4.3,0,6.5,0h0.1
		c14.3-0.1,28.7-0.2,34.5-0.2c1.5,0,2.9-1.2,3.3-2.7l2.2-10.7l0.4-2.1l2.6-12.8c0.3-1.5-0.7-2.7-2.2-2.7h-48.8
		c-19.4,0-25.1-5.2-23-20.3h77.9l0,0c0,0,0,0,0.1,0c1.2,0,2.4-0.9,2.8-2c0.1-0.2,0.2-0.4,0.2-0.7l0,0
		C555.8,676.2,552.4,646.8,502.9,646.8L502.9,646.8L502.9,646.8z M255.2,693.8l-0.7,2.6l0,0l-5.9,20.9l-5.9,20.9
		c-0.4,1.4-2,2.6-3.5,2.6h-31.1c-23.6,0-29.4-18.5-23.6-45.7c5.7-27.9,17-45.2,40.3-47C256.5,645.6,262.9,668,255.2,693.8
		L255.2,693.8z M276.5,739.1c0,0,14.7-35.7,18-56.3c4.5-27.6-9.3-67.6-62.6-67.6c-53,0-76,38.2-84.8,79.7
		c-8.8,41.8,2.7,78.5,55.4,78.2l41.6-0.2l38.9-0.1c1.5,0,3-1.2,3.4-2.6l6.8-25.8c0.4-1.4-0.5-2.6-2-2.7l-6.5,0l-6.5,0
		c-1.3,0-2-0.8-1.8-1.9C276.4,739.5,276.5,739.3,276.5,739.1L276.5,739.1L276.5,739.1z"/>
	<path class="st0" d="M539,715.3c0,1-0.8,1.8-1.8,1.8c-1,0-1.8-0.8-1.8-1.8s0.8-1.8,1.8-1.8C538.2,713.5,539,714.3,539,715.3z"/>
</g>
<path class="st1" d="M303.2,73.4c-39.5,56.8-37.3,132.9-6.5,193c5.2,10.1,11,19.8,17.5,29.2c5.9,8.5,12.5,18.6,20.3,25.4
	c2.8,3.1,5.8,6.2,8.9,9.2c0.8,0.8,1.6,1.5,2.3,2.3c2.9,2.9,5.9,5.7,9.1,8.4c0.1,0.1,0.2,0.2,0.4,0.3c0,0,0.1,0,0.1,0.1
	c3.4,3,7,5.9,10.6,8.7c0.8,0.6,1.6,1.2,2.4,1.9c3.6,2.8,7.3,5.5,11.1,8.1c0.1,0.1,0.2,0.2,0.3,0.2c1.7,1.2,3.4,2.2,5.1,3.3
	c0.8,0.5,1.6,1.1,2.4,1.6c2.7,1.7,5.4,3.4,8.2,5c0.4,0.2,0.8,0.4,1.2,0.7c2.4,1.4,4.8,2.7,7.2,4c0.9,0.5,1.7,0.9,2.6,1.3
	c1.7,0.9,3.4,1.8,5.1,2.6c0.3,0.1,0.5,0.2,0.8,0.4c3.5,1.7,7,3.4,10.6,4.9c0.8,0.3,1.6,0.6,2.3,1c2.9,1.2,5.8,2.4,8.7,3.5
	c1.2,0.5,2.5,0.9,3.7,1.4c2.6,1,5.3,1.9,8,2.8c1.2,0.4,2.4,0.8,3.6,1.2c3.8,1.2,7.5,2.7,11.5,3.3C664.1,430.9,711.2,274,711.2,274
	c-42.4,61.1-124.6,90.3-212.3,67.5c-5-1.3-10.1-2.8-15-4.5c-3.9-1.3-7.9-2.7-11.7-4.1c-2.9-1.1-5.8-2.3-8.7-3.5
	c-0.8-0.3-1.6-0.6-2.3-1c-3.6-1.6-7.1-3.2-10.6-4.9c-1.8-0.9-3.6-1.8-5.3-2.7l-3.1-1.6c-2.3-1.2-4.5-2.5-6.7-3.8
	c-0.5-0.3-1.1-0.6-1.6-0.9c-2.8-1.6-5.5-3.3-8.2-5c-0.8-0.5-1.6-1.1-2.5-1.6c-1.8-1.2-3.5-2.3-5.3-3.5c-3.7-2.6-7.4-5.3-11-8.1
	c-0.8-0.7-1.7-1.3-2.5-2c-38.4-30.3-68.8-71.7-83.3-118.7c-15.2-48.7-11.9-103.4,14.4-147.7"/>
<g>
	<path class="st1" d="M138,146.3c-57.2,82.3-50.1,189.3-6.4,276.7c1,2.1,2.1,4.2,3.2,6.2c0.7,1.3,1.3,2.7,2,3.9
		c0.4,0.8,0.9,1.5,1.3,2.3c0.7,1.4,1.5,2.7,2.3,4.1c1.4,2.4,2.7,4.8,4.2,7.2c0.8,1.3,1.6,2.6,2.4,3.9c1.6,2.5,3.2,5.1,4.8,7.6
		c0.7,1.1,1.4,2.1,2.1,3.2c2.3,3.4,4.6,6.8,7,10.1l0.2,0.3c0.4,0.5,0.8,1.1,1.2,1.6c2.1,2.9,4.2,5.7,6.4,8.5c0.8,1,1.6,2,2.4,3.1
		c2.7,3.4,5.4,6.7,8.2,10c2.7,3.2,5.5,6.4,8.4,9.6c0.1,0.1,0.2,0.2,0.3,0.4c5.7,6.2,11.6,12.2,17.7,18.1c0.9,0.9,1.8,1.8,2.7,2.6
		c3,2.9,6.1,5.7,9.3,8.5c0.5,0.5,1.1,0.9,1.6,1.4c2.7,2.4,5.5,4.7,8.3,7c1.1,0.9,2.3,1.8,3.4,2.7c2.3,1.8,4.6,3.6,6.9,5.4l3.7,2.8
		c2.6,1.9,5.2,3.8,7.8,5.6c1,0.7,1.9,1.4,2.8,2c0.3,0.2,0.5,0.4,0.8,0.6c2.5,1.7,5,3.4,7.6,5c1.1,0.7,2.2,1.5,3.3,2.2
		c3.9,2.5,7.8,4.9,11.8,7.2c1.1,0.6,2.2,1.2,3.3,1.8c2.9,1.7,5.9,3.4,8.9,5c1.6,0.9,3.3,1.7,4.9,2.5c2.1,1.1,4.2,2.2,6.4,3.3
		c0.5,0.2,1,0.5,1.5,0.7c0.9,0.4,1.7,0.8,2.6,1.3c4,1.9,8.1,3.8,12.2,5.6c3.9,1.7,7.8,3.3,11.7,4.9c0.9,0.4,1.9,0.8,2.9,1.1
		c4.1,1.6,8.3,3.1,12.5,4.6c4.1,1.4,8.2,2.7,12.4,4c1,0.3,2,0.6,3,0.9c4.2,1.3,8.4,2.8,12.8,3.6c276.8,50.5,357.2-166.3,357.2-166.3
		c-67.5,88-187.4,111.2-301,85.3c-4.3-1-8.5-2.3-12.7-3.6c-5.2-1.5-10.3-3.2-15.4-4.9l-1.7-0.6c-3.6-1.3-7.2-2.6-10.8-4
		c-1-0.4-2-0.8-3-1.2c-3.9-1.5-7.8-3.1-11.6-4.8c-0.8-0.3-1.5-0.7-2.3-1c-4.2-1.9-8.4-3.9-12.6-5.9c-2.5-1.2-5.1-2.6-7.6-3.9
		c-1.7-0.9-3.4-1.7-5.1-2.7c-3.1-1.6-6.1-3.3-9.1-5.1c-1-0.6-2-1.1-3.1-1.7c-4-2.4-7.9-4.8-11.8-7.3c-1.1-0.7-2.1-1.4-3.2-2.1
		c-2.8-1.8-5.6-3.7-8.4-5.6c-0.9-0.6-1.8-1.3-2.7-1.9c-2.7-1.9-5.3-3.8-8-5.8c-1.2-0.9-2.4-1.8-3.5-2.7c-3.5-2.7-7-5.4-10.4-8.2
		c-3-2.5-6-5-8.9-7.5l-1-0.8c-3.2-2.8-6.3-5.7-9.4-8.5c-0.9-0.9-1.8-1.7-2.7-2.5c-2.3-2.2-4.5-4.4-6.8-6.6c-0.9-0.9-1.8-1.8-2.7-2.6
		c-2.8-2.9-5.6-5.8-8.3-8.8l-0.4-0.4c-2.9-3.1-5.7-6.3-8.4-9.6c-0.7-0.9-1.5-1.7-2.2-2.6c-2.1-2.5-4.1-5-6-7.5
		c-0.7-0.9-1.5-1.8-2.2-2.8c-2.4-3.1-4.7-6.2-7-9.3c-63.1-86-85.7-204.6-35.3-302.1"/>
	<path class="st1" d="M465.1,25.2c-24.4,35.9-26.8,80.5-9.9,120.2c17.9,42.1,54.4,75.1,97.1,90.8c1.8,0.7,3.5,1.2,5.3,1.8
		c0.8,0.2,1.6,0.5,2.3,0.7c2.5,0.8,5,1.7,7.6,2.2c118,22.8,150-60.6,158.5-72.8c-28,40.4-75.2,50.1-133,36c-4.7-1.2-9.4-2.7-14-4.3
		c-5.7-2-11.2-4.3-16.6-6.9c-10.3-4.9-20-10.9-29.1-17.8C481.7,135.9,449.6,61,483.3,0"/>
</g>
</svg>