<?xml version="1.0" encoding="utf-8"?>
<!-- Generator: Adobe Illustrator 14.0.0, SVG Export Plug-In . SVG Version: 6.00 Build 43363)  -->
<!DOCTYPE svg PUBLIC "-//W3C//DTD SVG 1.1//EN" "http://www.w3.org/Graphics/SVG/1.1/DTD/svg11.dtd">
<svg version="1.1" id="Layer_2" xmlns="http://www.w3.org/2000/svg" xmlns:xlink="http://www.w3.org/1999/xlink" x="0px" y="0px"
	 width="560px" height="420px" viewBox="0 0 560 420" enable-background="new 0 0 560 420" xml:space="preserve">
<g id="Layer_1">
	<g transform="translate(0.000006234645752556389, 0.000006234645752556389) scale(3.1208476716129643)">
		<path fill="#FFFFFF" d="M89.81,134.761c-37.213,0-67.38-30.167-67.38-67.38S52.597,0,89.81,0s67.38,30.167,67.38,67.38l0,0
			C157.12,104.564,126.994,134.69,89.81,134.761z M89.81,2.963c-35.576,0-64.417,28.841-64.417,64.417
			c0,35.577,28.841,64.417,64.417,64.417s64.417-28.841,64.417-64.417C154.227,31.804,125.387,2.963,89.81,2.963z"/>
	</g>
	<g>
		<path fill="#FFFFFF" d="M219.585,160.471l23.658,68.74h0.283l22.383-68.74h31.309v99.96h-20.825v-70.84h-0.283l-24.792,70.84
			h-17.142l-24.792-70.141h-0.284v70.141h-20.825v-99.96H219.585z"/>
		<path fill="#FFFFFF" d="M367.201,160.471l37.825,99.96h-23.092l-7.65-22.26H336.46l-7.934,22.26h-22.383l38.249-99.96H367.201z
			 M368.477,221.791l-12.75-36.68h-0.284l-13.175,36.68H368.477z"/>
	</g>
</g>
</svg>
